<?xml version="1.0" encoding="utf-8"?>
<!-- Generator: Adobe Illustrator 22.0.0, SVG Export Plug-In . SVG Version: 6.00 Build 0)  -->
<svg version="1.1" id="Layer_1" xmlns="http://www.w3.org/2000/svg" xmlns:xlink="http://www.w3.org/1999/xlink" x="0px" y="0px"
	 viewBox="0 0 378.6 87.2" style="enable-background:new 0 0 378.6 87.2;" xml:space="preserve">
<style type="text/css">
	.st0{enable-background:new    ;}
</style>
<title>always-and-foreverAsset 2</title>
<g id="Layer_2_1_">
	<g id="Layer_1-2">
		<g class="st0">
			<path d="M1.5,51.8l11-43.6h19.6l11,43.6H28.9L28,47.1H16.7l-1,4.7H1.5z M18.7,37.8H26l-3.7-17.9L18.7,37.8z"/>
			<path d="M63.8,38.3H62v13.5H47.8V8.2h26.9c3.4,0,5.9,0.8,7.5,2.3c1.6,1.5,2.4,4,2.4,7.4v11.5c0,0.9-0.1,1.8-0.4,2.6
				c-0.3,0.8-0.7,1.6-1.2,2.2c-0.5,0.6-1.2,1.2-2,1.5c-0.8,0.4-1.8,0.6-2.8,0.6c0.9,0.2,1.6,0.6,2.2,1.2c0.5,0.6,0.9,1.4,1.3,2.4
				l4.2,11.9H70.4l-4-11.5c-0.2-0.6-0.6-1.1-1-1.5C65,38.5,64.5,38.3,63.8,38.3z M61.7,28.4h5.3c1.6,0,2.6-0.2,3.1-0.7
				c0.5-0.5,0.8-1.3,0.8-2.4v-3.5c0-1.7-0.8-2.6-2.5-2.6h-6.8V28.4z"/>
			<path d="M98,51.8c-2.3,0-4.1-0.7-5.5-2.1c-1.4-1.4-2-3.2-2-5.4V15.8c0-2.2,0.7-4,2-5.4c1.4-1.4,3.2-2.1,5.5-2.1h22.3
				c2.3,0,4.1,0.7,5.5,2.1c1.4,1.4,2.1,3.2,2.1,5.4v28.6c0,1.1-0.2,2.1-0.6,3.1c-0.4,0.9-1,1.7-1.7,2.4c-0.7,0.7-1.6,1.2-2.6,1.5
				c-1,0.4-2,0.5-3.1,0.5H98z M112.1,40.2c0.8,0,1.3-0.2,1.6-0.5c0.3-0.3,0.4-0.8,0.4-1.7V21.9c0-0.8-0.1-1.4-0.4-1.7
				c-0.3-0.3-0.9-0.4-1.6-0.4h-5.8c-0.8,0-1.4,0.1-1.6,0.4c-0.3,0.3-0.4,0.8-0.4,1.6v16.3c0,0.8,0.1,1.4,0.4,1.7
				c0.3,0.3,0.8,0.4,1.6,0.4H112.1z"/>
			<path d="M134.4,8.2h13.7v43.6h-13.7V8.2z"/>
			<path d="M154.6,8.2h26.6c1.8,0,3.2,0.2,4.5,0.5c1.2,0.4,2.2,0.9,3,1.7s1.4,1.8,1.7,3c0.4,1.2,0.5,2.7,0.5,4.5v24
				c0,1.8-0.2,3.3-0.5,4.6c-0.3,1.3-0.9,2.3-1.7,3.1c-0.8,0.8-1.8,1.3-3,1.7c-1.2,0.3-2.7,0.5-4.5,0.5h-26.6V8.2z M175.4,40.2
				c0.9,0,1.4-0.1,1.7-0.4c0.3-0.3,0.4-0.8,0.4-1.7V21.9c0-0.8-0.1-1.4-0.4-1.7c-0.3-0.3-0.9-0.4-1.8-0.4h-7.2v20.4H175.4z"/>
			<path d="M209.4,43.3c0-2.3,0.2-4.3,0.7-6c0.5-1.7,1.1-3.1,1.9-4.4c0.8-1.2,1.7-2.2,2.7-3c1-0.8,2.1-1.4,3.2-2
				c1.1-0.6,2.2-1,3.3-1.3c1.1-0.3,2.2-0.5,3.2-0.8c0.6-0.1,1.3-0.3,2-0.4c0.7-0.2,1.3-0.4,1.9-0.7s1-0.7,1.4-1.1
				c0.4-0.5,0.5-1.1,0.5-1.9c0-0.4-0.1-0.9-0.3-1.3c-0.2-0.4-0.6-0.7-1.3-0.7h-17.9L213,8.2h23.7c2.6,0,4.6,0.7,5.9,2.1s2,3.2,2,5.5
				V24c-0.1,2.2-0.7,4.2-1.7,5.8c-1.1,1.7-2.7,3.1-5,4.1c-1.3,0.6-2.7,1.2-4.3,1.6c-1.5,0.4-2.9,0.8-4.3,1.3c-1.3,0.4-2.4,1-3.3,1.5
				c-0.9,0.6-1.3,1.4-1.3,2.4h19.6L242,51.8h-32.6V43.3z"/>
			<path d="M283.1,8.2l2.4,11.6h-19.2c-0.9,0-1.4,0.1-1.6,0.4c-0.2,0.2-0.3,0.6-0.3,1.2v2.9h14.5c2.2,0,4,0.6,5.4,1.7
				c1.4,1.1,2.1,3,2.1,5.7v12.8c0,2.3-0.7,4.1-2.1,5.3c-1.4,1.3-3.2,1.9-5.3,1.9h-21.1c-1.5,0-2.8-0.2-3.8-0.6
				c-1-0.4-1.8-0.9-2.4-1.6s-1-1.4-1.2-2.3c-0.2-0.9-0.4-1.8-0.4-2.8V16c0-1.1,0.2-2.1,0.5-3.1c0.3-1,0.8-1.8,1.5-2.5
				c0.7-0.7,1.6-1.2,2.6-1.6c1.1-0.4,2.3-0.6,3.8-0.6H283.1z M266,33.4c-0.8,0-1.4,0.2-1.7,0.5c-0.3,0.3-0.5,0.9-0.5,1.7v3.4
				c0,0.8,0.1,1.4,0.4,1.7c0.3,0.3,0.8,0.5,1.6,0.5h4.5c0.8,0,1.4-0.2,1.7-0.5c0.3-0.3,0.4-0.9,0.4-1.7v-3.4c0-0.8-0.1-1.4-0.4-1.7
				c-0.3-0.3-0.9-0.5-1.7-0.5H266z"/>
			<path d="M299.2,52.6c-1.2,0-2.2-0.1-3-0.3c-0.9-0.2-1.6-0.5-2.2-1c-0.6-0.5-1-1.1-1.3-2c-0.3-0.8-0.5-1.9-0.5-3.2
				c0-2.6,0.6-4.3,1.8-5.2c1.2-0.9,2.9-1.4,5.2-1.4c2.3,0,4,0.5,5.2,1.4c1.2,0.9,1.8,2.6,1.8,5.2c0,1.3-0.2,2.3-0.4,3.2
				c-0.3,0.8-0.8,1.5-1.4,2c-0.6,0.5-1.3,0.8-2.2,1C301.3,52.6,300.3,52.6,299.2,52.6z"/>
			<path d="M320.2,51.8c-1.2,0-2.3-0.2-3.3-0.6s-1.9-1-2.6-1.8c-0.7-0.8-1.3-1.6-1.7-2.6c-0.4-1-0.6-2.1-0.6-3.2V16.4
				c0-1.2,0.2-2.2,0.6-3.2c0.4-1,1-1.9,1.7-2.6c0.7-0.7,1.6-1.3,2.6-1.7s2.1-0.6,3.3-0.6h20.9c1.2,0,2.3,0.2,3.3,0.6s1.9,1,2.6,1.7
				c0.7,0.7,1.3,1.6,1.7,2.6c0.4,1,0.6,2.1,0.6,3.2v27.2c0,1.2-0.2,2.2-0.6,3.2c-0.4,1-1,1.9-1.7,2.6c-0.7,0.7-1.6,1.3-2.6,1.7
				c-1,0.4-2.1,0.6-3.3,0.6H320.2z M332.8,40.2c0.8,0,1.4-0.2,1.9-0.7c0.5-0.4,0.7-1.1,0.7-2V22.2c0-0.8-0.3-1.4-0.8-1.8
				c-0.5-0.4-1.2-0.6-2.1-0.6h-4.1c-1.7,0-2.6,0.8-2.6,2.5v15.3c0,1.8,0.8,2.6,2.5,2.6H332.8z"/>
			<path d="M358.4,8.2h14.9v43.6H359v-32h-5.3L358.4,8.2z"/>
		</g>
		<g class="st0">
			<path d="M15.1,72.6c-0.4,0.2-0.9,0.5-1.5,0.7c-0.6,0.2-1.4,0.3-2.2,0.3c-1,0-1.9-0.2-2.7-0.5c-0.8-0.3-1.5-0.8-2-1.4
				c-0.6-0.6-1-1.3-1.3-2.1c-0.3-0.8-0.5-1.6-0.5-2.5c0-0.9,0.2-1.8,0.5-2.6s0.8-1.5,1.4-2.1C7.4,61.8,8.1,61.3,9,61
				c0.8-0.3,1.7-0.5,2.6-0.5c0.3,0,0.7,0,1,0.1c0.3,0,0.6,0.1,0.9,0.2c0.3,0.1,0.6,0.2,0.8,0.3c0.3,0.1,0.5,0.2,0.6,0.4
				c-0.1,0.1-0.1,0.2-0.1,0.2c0,0.1-0.1,0.1-0.1,0.2c0,0.1-0.1,0.1-0.1,0.2s-0.1,0.2-0.2,0.3c-0.4-0.2-0.8-0.4-1.3-0.5
				c-0.5-0.1-1-0.2-1.5-0.2c-0.8,0-1.5,0.1-2.1,0.4c-0.7,0.3-1.2,0.7-1.7,1.2c-0.5,0.5-0.9,1.1-1.2,1.7c-0.3,0.7-0.4,1.3-0.4,2.1
				c0,0.7,0.1,1.4,0.4,2c0.3,0.6,0.6,1.2,1.1,1.7c0.5,0.5,1,0.9,1.7,1.2c0.6,0.3,1.4,0.4,2.2,0.4c0.3,0,0.7,0,1-0.1
				c0.3-0.1,0.6-0.1,0.9-0.2s0.5-0.2,0.7-0.3c0.2-0.1,0.4-0.2,0.5-0.3L15.1,72.6z"/>
			<path d="M20.3,67.4c-0.4,0-0.7,0.1-1,0.2c-0.3,0.1-0.6,0.3-0.9,0.5c-0.3,0.2-0.5,0.5-0.6,0.7c-0.2,0.3-0.2,0.6-0.2,1v3.7h-1v-7.2
				h0.8l0.1,1.9c0.1-0.3,0.3-0.6,0.6-0.8s0.5-0.5,0.7-0.6c0.3-0.2,0.6-0.3,0.8-0.4c0.3-0.1,0.6-0.1,0.8-0.1L20.3,67.4z"/>
			<path d="M27.6,72.6c-0.3,0.3-0.8,0.6-1.2,0.7s-1,0.3-1.5,0.3c-0.5,0-1-0.1-1.5-0.3c-0.5-0.2-0.9-0.5-1.2-0.8
				c-0.3-0.3-0.6-0.7-0.8-1.2c-0.2-0.5-0.3-0.9-0.3-1.5c0-0.5,0.1-1,0.3-1.5c0.2-0.5,0.5-0.9,0.8-1.2c0.3-0.3,0.7-0.6,1.2-0.8
				c0.5-0.2,0.9-0.3,1.5-0.3c0.8,0,1.5,0.2,2.1,0.7s1,1.1,1.3,1.8c-0.4,0.2-0.9,0.3-1.4,0.5c-0.5,0.2-1,0.4-1.5,0.6
				c-0.5,0.2-1,0.4-1.6,0.6c-0.5,0.2-1,0.4-1.4,0.6c0.2,0.5,0.5,0.9,1,1.2c0.5,0.3,1,0.5,1.5,0.5c0.4,0,0.8-0.1,1.1-0.2
				c0.3-0.1,0.6-0.3,0.9-0.5L27.6,72.6z M27,68.4c-0.2-0.4-0.5-0.7-0.9-1c-0.4-0.2-0.8-0.4-1.2-0.4c-0.4,0-0.7,0.1-1.1,0.2
				c-0.3,0.2-0.6,0.4-0.9,0.6s-0.5,0.5-0.6,0.9c-0.1,0.3-0.2,0.7-0.2,1.1c0,0.2,0,0.4,0.1,0.5c0.4-0.2,0.8-0.3,1.2-0.5
				c0.4-0.2,0.8-0.3,1.3-0.5s0.8-0.3,1.2-0.5C26.2,68.7,26.6,68.5,27,68.4z"/>
			<path d="M29.3,69.9c0-0.5,0.1-1,0.3-1.5c0.2-0.5,0.5-0.9,0.8-1.2c0.3-0.3,0.7-0.6,1.2-0.8c0.5-0.2,0.9-0.3,1.5-0.3
				c0.4,0,0.7,0,1,0.1c0.3,0.1,0.6,0.2,0.8,0.4c0.2,0.2,0.5,0.3,0.6,0.5c0.2,0.2,0.3,0.4,0.4,0.6l0.1-1.5h0.9v7.2h-1v-0.7
				c0-0.1,0-0.3,0-0.4c0-0.1,0-0.2,0-0.3c-0.1,0.2-0.2,0.4-0.4,0.6c-0.2,0.2-0.4,0.4-0.6,0.5c-0.2,0.2-0.5,0.3-0.8,0.4
				c-0.3,0.1-0.7,0.1-1,0.1c-0.5,0-1-0.1-1.5-0.3c-0.5-0.2-0.9-0.5-1.2-0.8s-0.6-0.7-0.8-1.2C29.4,70.9,29.3,70.4,29.3,69.9z
				 M30.3,69.9c0,0.4,0.1,0.8,0.2,1.1c0.1,0.3,0.3,0.6,0.6,0.9s0.5,0.4,0.9,0.6c0.3,0.1,0.7,0.2,1.1,0.2s0.8-0.1,1.1-0.2
				c0.3-0.1,0.6-0.3,0.9-0.6s0.5-0.5,0.6-0.9c0.1-0.3,0.2-0.7,0.2-1.1c0-0.4-0.1-0.7-0.2-1.1c-0.1-0.3-0.3-0.6-0.6-0.9
				s-0.5-0.5-0.9-0.6c-0.3-0.1-0.7-0.2-1.1-0.2s-0.8,0.1-1.1,0.2c-0.3,0.1-0.6,0.3-0.9,0.6s-0.5,0.5-0.6,0.9
				C30.4,69.1,30.3,69.5,30.3,69.9z"/>
			<path d="M39.9,63.1h1v3.2h2.1v0.9h-2.1v6.2h-1v-6.2h-1.4v-0.9h1.4V63.1z"/>
			<path d="M50.3,72.6c-0.3,0.3-0.8,0.6-1.2,0.7s-1,0.3-1.5,0.3c-0.5,0-1-0.1-1.5-0.3c-0.5-0.2-0.9-0.5-1.2-0.8
				c-0.3-0.3-0.6-0.7-0.8-1.2c-0.2-0.5-0.3-0.9-0.3-1.5c0-0.5,0.1-1,0.3-1.5c0.2-0.5,0.5-0.9,0.8-1.2c0.3-0.3,0.7-0.6,1.2-0.8
				c0.5-0.2,0.9-0.3,1.5-0.3c0.8,0,1.5,0.2,2.1,0.7s1,1.1,1.3,1.8c-0.4,0.2-0.9,0.3-1.4,0.5c-0.5,0.2-1,0.4-1.5,0.6
				c-0.5,0.2-1,0.4-1.6,0.6c-0.5,0.2-1,0.4-1.4,0.6c0.2,0.5,0.5,0.9,1,1.2c0.5,0.3,1,0.5,1.5,0.5c0.4,0,0.8-0.1,1.1-0.2
				c0.3-0.1,0.6-0.3,0.9-0.5L50.3,72.6z M49.6,68.4c-0.2-0.4-0.5-0.7-0.9-1c-0.4-0.2-0.8-0.4-1.2-0.4c-0.4,0-0.7,0.1-1.1,0.2
				c-0.3,0.2-0.6,0.4-0.9,0.6s-0.5,0.5-0.6,0.9c-0.1,0.3-0.2,0.7-0.2,1.1c0,0.2,0,0.4,0.1,0.5c0.4-0.2,0.8-0.3,1.2-0.5
				c0.4-0.2,0.8-0.3,1.3-0.5s0.8-0.3,1.2-0.5C48.9,68.7,49.3,68.5,49.6,68.4z"/>
			<path d="M52,69.9c0-0.5,0.1-1,0.3-1.5c0.2-0.5,0.5-0.9,0.8-1.2s0.7-0.6,1.2-0.8c0.5-0.2,0.9-0.3,1.5-0.3c0.4,0,0.7,0,1,0.1
				c0.3,0.1,0.6,0.2,0.8,0.4c0.2,0.2,0.5,0.3,0.6,0.5c0.2,0.2,0.3,0.4,0.4,0.6v-8.1h1v13.8h-1v-0.7c0-0.1,0-0.3,0-0.4
				c0-0.1,0-0.2,0-0.4c-0.2,0.4-0.6,0.8-1.1,1.2s-1.1,0.5-1.8,0.5c-0.6,0-1.1-0.1-1.5-0.3c-0.5-0.2-0.8-0.5-1.2-0.8
				c-0.3-0.3-0.6-0.7-0.8-1.2C52.1,70.9,52,70.4,52,69.9z M53,69.9c0,0.4,0.1,0.8,0.2,1.1c0.1,0.3,0.3,0.6,0.6,0.9s0.5,0.4,0.9,0.6
				c0.3,0.1,0.7,0.2,1.1,0.2s0.8-0.1,1.1-0.2s0.6-0.3,0.9-0.6s0.4-0.5,0.6-0.9s0.2-0.7,0.2-1.1c0-0.4-0.1-0.7-0.2-1.1
				s-0.3-0.6-0.6-0.9s-0.5-0.5-0.9-0.6c-0.3-0.1-0.7-0.2-1.1-0.2s-0.8,0.1-1.1,0.2c-0.3,0.1-0.6,0.3-0.9,0.6s-0.5,0.5-0.6,0.9
				C53.1,69.1,53,69.5,53,69.9z"/>
			<path d="M67.1,73.5V60.6h3c0.6,0,1.1,0.1,1.6,0.2c0.5,0.1,0.9,0.3,1.3,0.6c0.3,0.3,0.6,0.6,0.8,1s0.3,0.9,0.3,1.5
				c0,0.3,0,0.7-0.1,1c-0.1,0.3-0.2,0.6-0.3,0.9c-0.2,0.3-0.4,0.5-0.6,0.7c-0.3,0.2-0.6,0.3-0.9,0.5c0.3,0.1,0.7,0.2,1,0.3
				c0.3,0.2,0.6,0.4,0.8,0.6s0.4,0.6,0.6,0.9c0.1,0.4,0.2,0.8,0.2,1.2c0,0.6-0.1,1.1-0.3,1.5s-0.5,0.8-0.9,1.1
				c-0.4,0.3-0.8,0.5-1.3,0.6c-0.5,0.1-1,0.2-1.5,0.2H67.1z M68.3,61.7v4.7h2.2c0.8,0,1.4-0.2,1.8-0.7s0.6-1,0.6-1.8
				c0-0.8-0.2-1.4-0.7-1.7c-0.5-0.4-1.1-0.5-1.9-0.5H68.3z M68.3,67.5v4.8h2.2c0.4,0,0.8-0.1,1.2-0.2c0.4-0.1,0.7-0.3,0.9-0.4
				c0.3-0.2,0.5-0.4,0.6-0.7c0.2-0.3,0.2-0.6,0.2-1c0-0.4-0.1-0.8-0.3-1.1c-0.2-0.3-0.4-0.6-0.7-0.8c-0.3-0.2-0.7-0.3-1-0.4
				c-0.4-0.1-0.8-0.1-1.2-0.1H68.3z"/>
			<path d="M78.1,76.9h-1c0.2-0.3,0.3-0.6,0.4-0.9c0.1-0.3,0.2-0.6,0.4-0.9c0.1-0.3,0.2-0.6,0.4-0.9c0.1-0.3,0.3-0.7,0.5-1.1
				c-0.6-1.1-1.1-2.3-1.6-3.4c-0.5-1.2-1.1-2.3-1.6-3.5h1.1c0.4,0.7,0.7,1.4,0.9,1.9c0.3,0.6,0.5,1.1,0.7,1.6s0.4,0.9,0.6,1.3
				c0.2,0.4,0.3,0.8,0.5,1.2c0.2-0.4,0.3-0.8,0.5-1.2c0.2-0.4,0.3-0.8,0.6-1.3s0.4-1,0.7-1.6c0.3-0.6,0.6-1.2,0.9-1.9H83L78.1,76.9z
				"/>
			<path d="M84.4,68c0-0.2,0.1-0.4,0.2-0.5c0.1-0.1,0.3-0.2,0.5-0.2c0.2,0,0.3,0.1,0.5,0.2c0.1,0.1,0.2,0.3,0.2,0.5
				c0,0.2-0.1,0.4-0.2,0.5c-0.1,0.1-0.3,0.2-0.5,0.2c-0.2,0-0.4-0.1-0.5-0.2C84.5,68.4,84.4,68.2,84.4,68z M84.4,72.7
				c0-0.2,0.1-0.4,0.2-0.5c0.1-0.1,0.3-0.2,0.5-0.2c0.2,0,0.3,0.1,0.5,0.2c0.1,0.1,0.2,0.3,0.2,0.5c0,0.2-0.1,0.4-0.2,0.5
				c-0.1,0.1-0.3,0.2-0.5,0.2c-0.2,0-0.4-0.1-0.5-0.2C84.5,73.1,84.4,73,84.4,72.7z"/>
			<path d="M101,73.5c-0.2-0.6-0.5-1.2-0.8-2c-0.3-0.8-0.7-1.7-1-2.6h-4.9c-0.3,0.9-0.7,1.8-1,2.6c-0.3,0.8-0.6,1.5-0.8,2h-1.2
				c0.2-0.4,0.4-1,0.7-1.7c0.3-0.7,0.6-1.5,1-2.3s0.7-1.7,1.1-2.7c0.4-0.9,0.7-1.8,1.1-2.7c0.3-0.9,0.7-1.6,1-2.3
				c0.3-0.7,0.5-1.3,0.7-1.7c0.2,0.4,0.4,1,0.7,1.7c0.3,0.7,0.6,1.5,1,2.3c0.3,0.9,0.7,1.7,1.1,2.7c0.4,0.9,0.7,1.8,1.1,2.7
				c0.3,0.9,0.7,1.6,1,2.3c0.3,0.7,0.5,1.3,0.7,1.7H101z M96.5,63.2c-0.2,0.6-0.5,1.3-0.9,2.1s-0.7,1.7-1,2.6h4.1
				c-0.4-0.9-0.7-1.8-1-2.6c-0.3-0.8-0.6-1.5-0.8-2.1c0,0-0.1-0.1-0.1-0.2c0-0.1-0.1-0.2-0.1-0.3c0,0.1-0.1,0.2-0.1,0.3
				C96.6,63.1,96.6,63.1,96.5,63.2z"/>
			<path d="M107.4,67.4c-0.4,0-0.7,0.1-1,0.2c-0.3,0.1-0.6,0.3-0.9,0.5c-0.3,0.2-0.5,0.5-0.6,0.7c-0.2,0.3-0.2,0.6-0.2,1v3.7h-1
				v-7.2h0.8l0.1,1.9c0.1-0.3,0.3-0.6,0.6-0.8s0.5-0.5,0.7-0.6c0.3-0.2,0.6-0.3,0.8-0.4c0.3-0.1,0.6-0.1,0.8-0.1L107.4,67.4z"/>
			<path d="M112.8,67l-0.5,0.7c-0.1-0.1-0.3-0.3-0.6-0.4c-0.3-0.1-0.6-0.2-0.9-0.2c-0.1,0-0.2,0-0.4,0.1c-0.1,0-0.3,0.1-0.4,0.2
				c-0.1,0.1-0.2,0.2-0.3,0.3c-0.1,0.1-0.1,0.3-0.1,0.5c0,0.3,0.1,0.5,0.3,0.7c0.2,0.2,0.4,0.3,0.6,0.4c0.3,0.1,0.5,0.2,0.8,0.3
				c0.3,0.1,0.6,0.2,0.8,0.4s0.5,0.4,0.6,0.6c0.2,0.2,0.3,0.6,0.3,0.9c0,0.6-0.2,1.1-0.6,1.5c-0.4,0.4-1,0.6-1.7,0.6
				c-0.4,0-0.8-0.1-1.3-0.2c-0.4-0.1-0.8-0.4-1-0.7c0,0,0.1-0.1,0.2-0.2c0.1-0.1,0.1-0.2,0.2-0.2c0.1-0.1,0.1-0.1,0.2-0.2
				C109,72,109,72,109,72c0,0.1,0.1,0.1,0.2,0.2c0.1,0.1,0.3,0.1,0.4,0.2c0.2,0.1,0.3,0.1,0.5,0.2c0.2,0,0.4,0.1,0.5,0.1
				c0.1,0,0.3,0,0.5-0.1c0.2,0,0.3-0.1,0.4-0.2c0.1-0.1,0.2-0.2,0.3-0.4c0.1-0.1,0.1-0.3,0.1-0.5c0-0.3-0.1-0.5-0.3-0.7
				s-0.4-0.3-0.6-0.4c-0.3-0.1-0.5-0.2-0.8-0.3s-0.6-0.2-0.8-0.4s-0.5-0.4-0.6-0.6s-0.3-0.6-0.3-1c0-0.4,0.1-0.7,0.2-0.9
				c0.1-0.2,0.3-0.4,0.5-0.6s0.4-0.3,0.7-0.4s0.5-0.1,0.7-0.1c0.3,0,0.7,0.1,1,0.2C112.2,66.5,112.5,66.7,112.8,67z"/>
			<path d="M114.9,59.7h1V68c0.2-0.6,0.6-1,1.1-1.4c0.5-0.4,1.1-0.5,1.8-0.5c0.7,0,1.3,0.2,1.7,0.6c0.4,0.4,0.6,0.9,0.7,1.6v5.2h-1
				v-4.9c0-0.4-0.2-0.8-0.4-1c-0.3-0.3-0.7-0.4-1.2-0.5c-0.4,0-0.7,0.1-1.1,0.2c-0.3,0.1-0.6,0.3-0.9,0.5c-0.2,0.2-0.4,0.5-0.6,0.8
				c-0.1,0.3-0.2,0.7-0.2,1v3.8h-1V59.7z"/>
			<path d="M135.4,61.3l-0.4,1c-0.4-0.2-0.9-0.3-1.4-0.4c-0.5-0.1-1-0.2-1.5-0.2c-0.4,0-0.8,0.1-1.2,0.2c-0.3,0.1-0.6,0.3-0.9,0.4
				c-0.2,0.2-0.4,0.4-0.5,0.7s-0.2,0.5-0.2,0.8c0,0.3,0.1,0.6,0.3,0.9s0.4,0.5,0.8,0.6s0.7,0.3,1.1,0.5s0.8,0.3,1.2,0.5
				s0.8,0.3,1.2,0.5c0.4,0.2,0.8,0.4,1.1,0.7c0.3,0.3,0.6,0.6,0.8,1s0.3,0.9,0.3,1.4c0,0.6-0.1,1.1-0.3,1.5
				c-0.2,0.5-0.5,0.8-0.9,1.2c-0.4,0.3-0.9,0.6-1.4,0.7s-1.2,0.3-1.9,0.3c-0.5,0-1,0-1.4-0.1c-0.4-0.1-0.8-0.2-1.1-0.3
				c-0.3-0.1-0.6-0.3-0.9-0.4c-0.2-0.1-0.4-0.2-0.6-0.3l0.6-1.1c0.2,0.1,0.5,0.3,0.7,0.4s0.6,0.2,0.8,0.3s0.6,0.2,0.9,0.2
				s0.6,0.1,0.9,0.1c0.3,0,0.7,0,1.1-0.1c0.4-0.1,0.7-0.2,1.1-0.4c0.3-0.2,0.6-0.5,0.8-0.8s0.3-0.7,0.3-1.2c0-0.6-0.2-1-0.5-1.4
				c-0.3-0.3-0.7-0.6-1.2-0.9s-1-0.5-1.6-0.7c-0.6-0.2-1.1-0.4-1.6-0.7s-0.9-0.6-1.2-1c-0.3-0.4-0.5-0.9-0.5-1.5
				c0-0.4,0.1-0.8,0.3-1.2c0.2-0.4,0.4-0.8,0.8-1.1c0.3-0.3,0.7-0.5,1.2-0.7s1-0.3,1.6-0.3c0.3,0,0.7,0,1,0.1s0.7,0.1,1,0.2
				s0.6,0.2,0.8,0.2C135.1,61.2,135.3,61.2,135.4,61.3z"/>
			<path d="M143.8,72.6c-0.3,0.3-0.8,0.6-1.2,0.7s-1,0.3-1.5,0.3c-0.5,0-1-0.1-1.5-0.3c-0.5-0.2-0.9-0.5-1.2-0.8
				c-0.3-0.3-0.6-0.7-0.8-1.2c-0.2-0.5-0.3-0.9-0.3-1.5c0-0.5,0.1-1,0.3-1.5c0.2-0.5,0.5-0.9,0.8-1.2c0.3-0.3,0.7-0.6,1.2-0.8
				c0.5-0.2,0.9-0.3,1.5-0.3c0.8,0,1.5,0.2,2.1,0.7s1,1.1,1.3,1.8c-0.4,0.2-0.9,0.3-1.4,0.5c-0.5,0.2-1,0.4-1.5,0.6
				c-0.5,0.2-1,0.4-1.6,0.6c-0.5,0.2-1,0.4-1.4,0.6c0.2,0.5,0.5,0.9,1,1.2c0.5,0.3,1,0.5,1.5,0.5c0.4,0,0.8-0.1,1.1-0.2
				c0.3-0.1,0.6-0.3,0.9-0.5L143.8,72.6z M143.2,68.4c-0.2-0.4-0.5-0.7-0.9-1c-0.4-0.2-0.8-0.4-1.2-0.4c-0.4,0-0.7,0.1-1.1,0.2
				c-0.3,0.2-0.6,0.4-0.9,0.6s-0.5,0.5-0.6,0.9c-0.1,0.3-0.2,0.7-0.2,1.1c0,0.2,0,0.4,0.1,0.5c0.4-0.2,0.8-0.3,1.2-0.5
				c0.4-0.2,0.8-0.3,1.3-0.5s0.8-0.3,1.2-0.5C142.5,68.7,142.8,68.5,143.2,68.4z"/>
			<path d="M150.9,66.1l0.6,0.6c-0.5,0.4-0.9,0.8-1.3,1.2s-0.8,0.8-1.3,1.2l3.1,4.3h-1.2l-2.7-3.6l-1.2,1.1v2.6h-1V59.7h1v10
				c0.7-0.6,1.3-1.2,1.9-1.8C149.6,67.3,150.3,66.7,150.9,66.1z"/>
			<path d="M153.5,59.7h1V68c0.2-0.6,0.6-1,1.1-1.4c0.5-0.4,1.1-0.5,1.8-0.5c0.7,0,1.3,0.2,1.7,0.6c0.4,0.4,0.6,0.9,0.7,1.6v5.2h-1
				v-4.9c0-0.4-0.2-0.8-0.4-1c-0.3-0.3-0.7-0.4-1.2-0.5c-0.4,0-0.7,0.1-1.1,0.2c-0.3,0.1-0.6,0.3-0.9,0.5c-0.2,0.2-0.4,0.5-0.6,0.8
				c-0.1,0.3-0.2,0.7-0.2,1v3.8h-1V59.7z"/>
			<path d="M161.6,69.9c0-0.5,0.1-1,0.3-1.5c0.2-0.5,0.5-0.9,0.8-1.2c0.3-0.3,0.7-0.6,1.2-0.8c0.5-0.2,1-0.3,1.5-0.3
				c0.5,0,1,0.1,1.5,0.3c0.5,0.2,0.9,0.5,1.2,0.8c0.3,0.3,0.6,0.7,0.8,1.2c0.2,0.5,0.3,1,0.3,1.5c0,0.5-0.1,1-0.3,1.5
				c-0.2,0.5-0.5,0.9-0.8,1.2c-0.3,0.3-0.7,0.6-1.2,0.8c-0.5,0.2-1,0.3-1.5,0.3c-0.5,0-1-0.1-1.5-0.3c-0.5-0.2-0.9-0.4-1.2-0.8
				c-0.3-0.3-0.6-0.7-0.8-1.2C161.7,70.9,161.6,70.4,161.6,69.9z M162.6,69.9c0,0.4,0.1,0.7,0.2,1.1c0.1,0.3,0.3,0.6,0.6,0.9
				s0.5,0.4,0.9,0.6s0.7,0.2,1.1,0.2s0.7-0.1,1.1-0.2c0.3-0.1,0.6-0.3,0.9-0.6s0.5-0.5,0.6-0.9s0.2-0.7,0.2-1.1
				c0-0.4-0.1-0.7-0.2-1.1s-0.3-0.6-0.6-0.9s-0.5-0.5-0.9-0.6c-0.3-0.1-0.7-0.2-1.1-0.2s-0.7,0.1-1.1,0.2c-0.3,0.1-0.6,0.3-0.9,0.6
				s-0.5,0.5-0.6,0.9C162.7,69.1,162.6,69.5,162.6,69.9z"/>
			<path d="M171.1,66.3h0.8l0.1,1.9c0.3-0.6,0.7-1.1,1.2-1.5c0.5-0.4,1.1-0.6,1.9-0.6c0.7,0,1.3,0.2,1.7,0.6
				c0.4,0.4,0.6,0.9,0.7,1.6v5.2h-1v-4.9c0-0.4-0.2-0.8-0.4-1c-0.3-0.3-0.7-0.4-1.2-0.5c-0.4,0-0.7,0.1-1.1,0.2
				c-0.3,0.1-0.6,0.3-0.9,0.5c-0.2,0.2-0.4,0.5-0.6,0.8c-0.1,0.3-0.2,0.7-0.2,1v3.8h-1V66.3z"/>
		</g>
	</g>
</g>
</svg>
